<mxfile host="65bd71144e">
    <diagram id="GOKPqpnqBQfmIKEEnT1D" name="Page-1">
        <mxGraphModel dx="1791" dy="924" grid="1" gridSize="10" guides="1" tooltips="1" connect="1" arrows="1" fold="1" page="0" pageScale="1" pageWidth="850" pageHeight="1100" math="0" shadow="0">
            <root>
                <mxCell id="0"/>
                <mxCell id="1" parent="0"/>
                <mxCell id="3" value="SmileHub" style="shape=umlFrame;whiteSpace=wrap;html=1;width=80;height=30;" parent="1" vertex="1">
                    <mxGeometry x="-104" y="60" width="540" height="912" as="geometry"/>
                </mxCell>
                <mxCell id="4" value="visiteur" style="shape=umlActor;verticalLabelPosition=bottom;verticalAlign=top;html=1;" parent="1" vertex="1">
                    <mxGeometry x="-190" y="100" width="30" height="60" as="geometry"/>
                </mxCell>
                <mxCell id="62" style="edgeStyle=none;html=1;" parent="1" source="6" edge="1">
                    <mxGeometry relative="1" as="geometry">
                        <mxPoint x="-165" y="460" as="targetPoint"/>
                    </mxGeometry>
                </mxCell>
                <mxCell id="6" value="dentiste" style="shape=umlActor;verticalLabelPosition=bottom;verticalAlign=top;html=1;" parent="1" vertex="1">
                    <mxGeometry x="-180" y="563" width="30" height="60" as="geometry"/>
                </mxCell>
                <mxCell id="7" value="Admin" style="shape=umlActor;verticalLabelPosition=bottom;verticalAlign=top;html=1;" parent="1" vertex="1">
                    <mxGeometry x="-180" y="732.5" width="30" height="60" as="geometry"/>
                </mxCell>
                <mxCell id="8" value="naviger sue le site" style="ellipse;whiteSpace=wrap;html=1;" parent="1" vertex="1">
                    <mxGeometry x="52" y="82" width="105" height="40" as="geometry"/>
                </mxCell>
                <mxCell id="9" value="&lt;span style=&quot;color: rgb(0, 0, 0);&quot;&gt;accéder aux informations des dentists&lt;/span&gt;" style="ellipse;whiteSpace=wrap;html=1;" parent="1" vertex="1">
                    <mxGeometry x="40" y="137" width="120" height="56" as="geometry"/>
                </mxCell>
                <mxCell id="10" value="prise de rendez-vous" style="ellipse;whiteSpace=wrap;html=1;" parent="1" vertex="1">
                    <mxGeometry x="48" y="257" width="110" height="50" as="geometry"/>
                </mxCell>
                <mxCell id="11" value="modifier mon profile" style="ellipse;whiteSpace=wrap;html=1;" parent="1" vertex="1">
                    <mxGeometry x="43.18" y="317" width="114" height="52" as="geometry"/>
                </mxCell>
                <mxCell id="12" value="" style="endArrow=none;html=1;entryX=0;entryY=0.5;entryDx=0;entryDy=0;" parent="1" source="4" target="8" edge="1">
                    <mxGeometry width="50" height="50" relative="1" as="geometry">
                        <mxPoint x="-140" y="280" as="sourcePoint"/>
                        <mxPoint x="30" y="210" as="targetPoint"/>
                    </mxGeometry>
                </mxCell>
                <mxCell id="13" value="" style="endArrow=none;html=1;entryX=0;entryY=0.5;entryDx=0;entryDy=0;" parent="1" source="4" target="9" edge="1">
                    <mxGeometry width="50" height="50" relative="1" as="geometry">
                        <mxPoint x="-160" y="280" as="sourcePoint"/>
                        <mxPoint x="50.00000000000023" y="165" as="targetPoint"/>
                    </mxGeometry>
                </mxCell>
                <mxCell id="14" value="" style="endArrow=none;html=1;entryX=0;entryY=0.5;entryDx=0;entryDy=0;" parent="1" source="41" target="10" edge="1">
                    <mxGeometry width="50" height="50" relative="1" as="geometry">
                        <mxPoint x="-109.99999999999977" y="310" as="sourcePoint"/>
                        <mxPoint x="70.00000000000023" y="185" as="targetPoint"/>
                    </mxGeometry>
                </mxCell>
                <mxCell id="15" value="" style="endArrow=none;html=1;entryX=0;entryY=0.5;entryDx=0;entryDy=0;" parent="1" source="41" target="11" edge="1">
                    <mxGeometry width="50" height="50" relative="1" as="geometry">
                        <mxPoint x="-99.99999999999977" y="320" as="sourcePoint"/>
                        <mxPoint x="80.00000000000023" y="195" as="targetPoint"/>
                    </mxGeometry>
                </mxCell>
                <mxCell id="16" value="&lt;span style=&quot;color: rgb(63, 63, 63);&quot;&gt;voir les rendez-vous des patients&lt;/span&gt;" style="ellipse;whiteSpace=wrap;html=1;" parent="1" vertex="1">
                    <mxGeometry x="40" y="440" width="126" height="60" as="geometry"/>
                </mxCell>
                <mxCell id="17" value="accepter / annuler / complété un rendez-vous" style="ellipse;whiteSpace=wrap;html=1;" parent="1" vertex="1">
                    <mxGeometry x="24" y="504" width="150" height="60" as="geometry"/>
                </mxCell>
                <mxCell id="18" value="ajouter treatment à un rendez-vous complété" style="ellipse;whiteSpace=wrap;html=1;" parent="1" vertex="1">
                    <mxGeometry x="33" y="566" width="132" height="57" as="geometry"/>
                </mxCell>
                <mxCell id="20" value="" style="endArrow=none;html=1;entryX=0;entryY=0.5;entryDx=0;entryDy=0;" parent="1" source="6" target="16" edge="1">
                    <mxGeometry width="50" height="50" relative="1" as="geometry">
                        <mxPoint x="-170" y="530" as="sourcePoint"/>
                        <mxPoint x="51" y="620.23" as="targetPoint"/>
                    </mxGeometry>
                </mxCell>
                <mxCell id="21" value="" style="endArrow=none;html=1;entryX=0;entryY=0.5;entryDx=0;entryDy=0;" parent="1" source="6" target="17" edge="1">
                    <mxGeometry width="50" height="50" relative="1" as="geometry">
                        <mxPoint x="-170" y="544" as="sourcePoint"/>
                        <mxPoint x="61" y="455" as="targetPoint"/>
                    </mxGeometry>
                </mxCell>
                <mxCell id="22" value="" style="endArrow=none;html=1;" parent="1" source="6" target="18" edge="1">
                    <mxGeometry width="50" height="50" relative="1" as="geometry">
                        <mxPoint x="-149.99999999999977" y="553.9618644067796" as="sourcePoint"/>
                        <mxPoint x="71" y="465" as="targetPoint"/>
                    </mxGeometry>
                </mxCell>
                <mxCell id="24" value="ajouter/supprimer/modifier des categories&amp;nbsp;" style="ellipse;whiteSpace=wrap;html=1;" parent="1" vertex="1">
                    <mxGeometry x="29.869999999999997" y="791" width="152.25" height="60" as="geometry"/>
                </mxCell>
                <mxCell id="25" value="Accepter des utilisateurs en tant que dentistes" style="ellipse;whiteSpace=wrap;html=1;" parent="1" vertex="1">
                    <mxGeometry x="30.5" y="852" width="150.75" height="55" as="geometry"/>
                </mxCell>
                <mxCell id="26" value="Consultation des statistiques globales" style="ellipse;whiteSpace=wrap;html=1;" parent="1" vertex="1">
                    <mxGeometry x="33" y="915" width="146.37" height="49" as="geometry"/>
                </mxCell>
                <mxCell id="27" value="" style="endArrow=none;html=1;entryX=0;entryY=0.5;entryDx=0;entryDy=0;" parent="1" source="7" target="24" edge="1">
                    <mxGeometry width="50" height="50" relative="1" as="geometry">
                        <mxPoint x="-190" y="760" as="sourcePoint"/>
                        <mxPoint x="39.00000000000182" y="710.23" as="targetPoint"/>
                    </mxGeometry>
                </mxCell>
                <mxCell id="28" value="" style="endArrow=none;html=1;entryX=0;entryY=0.5;entryDx=0;entryDy=0;" parent="1" source="7" target="25" edge="1">
                    <mxGeometry width="50" height="50" relative="1" as="geometry">
                        <mxPoint x="-170" y="750" as="sourcePoint"/>
                        <mxPoint x="71.00000000000182" y="635" as="targetPoint"/>
                    </mxGeometry>
                </mxCell>
                <mxCell id="29" value="" style="endArrow=none;html=1;entryX=0;entryY=0.5;entryDx=0;entryDy=0;" parent="1" source="7" target="26" edge="1">
                    <mxGeometry width="50" height="50" relative="1" as="geometry">
                        <mxPoint x="-190" y="750" as="sourcePoint"/>
                        <mxPoint x="81.00000000000182" y="645" as="targetPoint"/>
                    </mxGeometry>
                </mxCell>
                <mxCell id="30" value="login" style="ellipse;whiteSpace=wrap;html=1;" parent="1" vertex="1">
                    <mxGeometry x="326" y="410" width="110" height="55" as="geometry"/>
                </mxCell>
                <mxCell id="31" value="includ" style="endArrow=open;endSize=12;dashed=1;html=1;exitX=0.979;exitY=0.617;exitDx=0;exitDy=0;entryX=0.024;entryY=0.373;entryDx=0;entryDy=0;exitPerimeter=0;entryPerimeter=0;" parent="1" source="10" target="30" edge="1">
                    <mxGeometry width="160" relative="1" as="geometry">
                        <mxPoint x="161" y="330" as="sourcePoint"/>
                        <mxPoint x="371" y="498.5" as="targetPoint"/>
                    </mxGeometry>
                </mxCell>
                <mxCell id="32" value="includ" style="endArrow=open;endSize=12;dashed=1;html=1;exitX=1;exitY=0.5;exitDx=0;exitDy=0;entryX=0;entryY=0.5;entryDx=0;entryDy=0;" parent="1" source="11" target="30" edge="1">
                    <mxGeometry width="160" relative="1" as="geometry">
                        <mxPoint x="170" y="284" as="sourcePoint"/>
                        <mxPoint x="380" y="452.5" as="targetPoint"/>
                    </mxGeometry>
                </mxCell>
                <mxCell id="33" value="includ" style="endArrow=open;endSize=12;dashed=1;html=1;exitX=1;exitY=0.5;exitDx=0;exitDy=0;entryX=0.024;entryY=0.615;entryDx=0;entryDy=0;entryPerimeter=0;" parent="1" source="16" target="30" edge="1">
                    <mxGeometry width="160" relative="1" as="geometry">
                        <mxPoint x="180" y="294" as="sourcePoint"/>
                        <mxPoint x="390" y="462.5" as="targetPoint"/>
                    </mxGeometry>
                </mxCell>
                <mxCell id="34" value="includ" style="endArrow=open;endSize=12;dashed=1;html=1;exitX=1;exitY=0.5;exitDx=0;exitDy=0;entryX=0.048;entryY=0.748;entryDx=0;entryDy=0;entryPerimeter=0;" parent="1" source="17" target="30" edge="1">
                    <mxGeometry width="160" relative="1" as="geometry">
                        <mxPoint x="190" y="304" as="sourcePoint"/>
                        <mxPoint x="400" y="472.5" as="targetPoint"/>
                    </mxGeometry>
                </mxCell>
                <mxCell id="35" value="includ" style="endArrow=open;endSize=12;dashed=1;html=1;exitX=1;exitY=0.5;exitDx=0;exitDy=0;entryX=0;entryY=1;entryDx=0;entryDy=0;" parent="1" source="18" target="30" edge="1">
                    <mxGeometry width="160" relative="1" as="geometry">
                        <mxPoint x="200" y="314" as="sourcePoint"/>
                        <mxPoint x="410" y="482.5" as="targetPoint"/>
                        <Array as="points">
                            <mxPoint x="240" y="540"/>
                        </Array>
                    </mxGeometry>
                </mxCell>
                <mxCell id="37" value="includ" style="endArrow=open;endSize=12;dashed=1;html=1;entryX=0.376;entryY=1.015;entryDx=0;entryDy=0;entryPerimeter=0;exitX=1;exitY=0.5;exitDx=0;exitDy=0;" parent="1" source="24" target="30" edge="1">
                    <mxGeometry width="160" relative="1" as="geometry">
                        <mxPoint x="220" y="334" as="sourcePoint"/>
                        <mxPoint x="430" y="502.5" as="targetPoint"/>
                        <Array as="points">
                            <mxPoint x="320" y="780"/>
                        </Array>
                    </mxGeometry>
                </mxCell>
                <mxCell id="38" value="includ" style="endArrow=open;endSize=12;dashed=1;html=1;exitX=1;exitY=0.5;exitDx=0;exitDy=0;entryX=0.5;entryY=1;entryDx=0;entryDy=0;" parent="1" source="25" target="30" edge="1">
                    <mxGeometry width="160" relative="1" as="geometry">
                        <mxPoint x="230" y="344" as="sourcePoint"/>
                        <mxPoint x="440" y="512.5" as="targetPoint"/>
                        <Array as="points">
                            <mxPoint x="350" y="799"/>
                        </Array>
                    </mxGeometry>
                </mxCell>
                <mxCell id="39" value="includ" style="endArrow=open;endSize=12;dashed=1;html=1;exitX=0.972;exitY=0.381;exitDx=0;exitDy=0;entryX=0.661;entryY=0.979;entryDx=0;entryDy=0;exitPerimeter=0;entryPerimeter=0;" parent="1" source="26" target="30" edge="1">
                    <mxGeometry width="160" relative="1" as="geometry">
                        <mxPoint x="240" y="354" as="sourcePoint"/>
                        <mxPoint x="450" y="522.5" as="targetPoint"/>
                        <Array as="points">
                            <mxPoint x="370" y="850"/>
                        </Array>
                    </mxGeometry>
                </mxCell>
                <mxCell id="61" style="edgeStyle=none;html=1;" parent="1" source="41" edge="1">
                    <mxGeometry relative="1" as="geometry">
                        <mxPoint x="-165" y="210" as="targetPoint"/>
                    </mxGeometry>
                </mxCell>
                <mxCell id="41" value="patient" style="shape=umlActor;verticalLabelPosition=bottom;verticalAlign=top;html=1;" parent="1" vertex="1">
                    <mxGeometry x="-180" y="360" width="30" height="60" as="geometry"/>
                </mxCell>
                <mxCell id="43" value="" style="endArrow=none;html=1;entryX=0;entryY=0.5;entryDx=0;entryDy=0;" parent="1" source="4" target="44" edge="1">
                    <mxGeometry width="50" height="50" relative="1" as="geometry">
                        <mxPoint x="-140" y="230.5" as="sourcePoint"/>
                        <mxPoint x="74.99999999999795" y="209" as="targetPoint"/>
                    </mxGeometry>
                </mxCell>
                <mxCell id="44" value="accéder aux contenus des dentists" style="ellipse;whiteSpace=wrap;html=1;" parent="1" vertex="1">
                    <mxGeometry x="44" y="197" width="120" height="56" as="geometry"/>
                </mxCell>
                <mxCell id="46" value="" style="endArrow=none;html=1;entryX=0;entryY=0.5;entryDx=0;entryDy=0;" parent="1" source="41" target="47" edge="1">
                    <mxGeometry width="50" height="50" relative="1" as="geometry">
                        <mxPoint x="-140" y="420" as="sourcePoint"/>
                        <mxPoint x="49.999999999997954" y="393" as="targetPoint"/>
                    </mxGeometry>
                </mxCell>
                <mxCell id="47" value="&lt;span&gt;consulter les créneaux disponibles&lt;/span&gt;" style="ellipse;whiteSpace=wrap;html=1;" parent="1" vertex="1">
                    <mxGeometry x="44" y="377" width="110" height="50" as="geometry"/>
                </mxCell>
                <mxCell id="48" value="includ" style="endArrow=open;endSize=12;dashed=1;html=1;entryX=0;entryY=1;entryDx=0;entryDy=0;exitX=0.98;exitY=0.255;exitDx=0;exitDy=0;exitPerimeter=0;" parent="1" source="47" target="30" edge="1">
                    <mxGeometry width="160" relative="1" as="geometry">
                        <mxPoint x="140" y="340" as="sourcePoint"/>
                        <mxPoint x="320.0000000000002" y="362.5" as="targetPoint"/>
                    </mxGeometry>
                </mxCell>
                <mxCell id="53" value="voir les statistics&amp;nbsp;" style="ellipse;whiteSpace=wrap;html=1;" parent="1" vertex="1">
                    <mxGeometry x="48" y="624" width="110" height="49" as="geometry"/>
                </mxCell>
                <mxCell id="54" value="" style="endArrow=none;html=1;entryX=0;entryY=0.5;entryDx=0;entryDy=0;" parent="1" source="6" target="53" edge="1">
                    <mxGeometry width="50" height="50" relative="1" as="geometry">
                        <mxPoint x="-159.99999999999977" y="619.7185594334765" as="sourcePoint"/>
                        <mxPoint x="71" y="523.05" as="targetPoint"/>
                    </mxGeometry>
                </mxCell>
                <mxCell id="55" value="includ" style="endArrow=open;endSize=12;dashed=1;html=1;exitX=1;exitY=0.5;exitDx=0;exitDy=0;entryX=0.298;entryY=0.959;entryDx=0;entryDy=0;entryPerimeter=0;" parent="1" source="53" target="30" edge="1">
                    <mxGeometry width="160" relative="1" as="geometry">
                        <mxPoint x="200" y="372.05" as="sourcePoint"/>
                        <mxPoint x="326.1091270347399" y="429.99543648263017" as="targetPoint"/>
                        <Array as="points">
                            <mxPoint x="250" y="590"/>
                        </Array>
                    </mxGeometry>
                </mxCell>
                <mxCell id="58" value="extends" style="endArrow=open;endSize=12;dashed=1;html=1;exitX=0.956;exitY=0.744;exitDx=0;exitDy=0;exitPerimeter=0;entryX=0.5;entryY=0;entryDx=0;entryDy=0;" parent="1" source="8" target="30" edge="1">
                    <mxGeometry width="160" relative="1" as="geometry">
                        <mxPoint x="-20" y="240" as="sourcePoint"/>
                        <mxPoint x="140" y="240" as="targetPoint"/>
                    </mxGeometry>
                </mxCell>
                <mxCell id="59" value="extends" style="endArrow=open;endSize=12;dashed=1;html=1;exitX=1;exitY=0.5;exitDx=0;exitDy=0;entryX=0.384;entryY=0.011;entryDx=0;entryDy=0;entryPerimeter=0;" parent="1" source="9" target="30" edge="1">
                    <mxGeometry width="160" relative="1" as="geometry">
                        <mxPoint x="250" y="130" as="sourcePoint"/>
                        <mxPoint x="410" y="130" as="targetPoint"/>
                    </mxGeometry>
                </mxCell>
                <mxCell id="60" value="extends" style="endArrow=open;endSize=12;dashed=1;html=1;exitX=1;exitY=0.5;exitDx=0;exitDy=0;" parent="1" source="44" target="30" edge="1">
                    <mxGeometry width="160" relative="1" as="geometry">
                        <mxPoint x="220" y="200" as="sourcePoint"/>
                        <mxPoint x="380" y="200" as="targetPoint"/>
                    </mxGeometry>
                </mxCell>
                <mxCell id="68" value="&lt;span style=&quot;color: rgb(0, 0, 0);&quot;&gt;activer / descativer utilisateur&lt;/span&gt;" style="ellipse;whiteSpace=wrap;html=1;" parent="1" vertex="1">
                    <mxGeometry x="34" y="736.5" width="132.25" height="50" as="geometry"/>
                </mxCell>
                <mxCell id="69" value="" style="endArrow=none;html=1;entryX=0;entryY=0.5;entryDx=0;entryDy=0;exitX=1;exitY=0.3333333333333333;exitDx=0;exitDy=0;exitPerimeter=0;" parent="1" source="7" target="68" edge="1">
                    <mxGeometry width="50" height="50" relative="1" as="geometry">
                        <mxPoint x="-160" y="713" as="sourcePoint"/>
                        <mxPoint x="71" y="425" as="targetPoint"/>
                    </mxGeometry>
                </mxCell>
                <mxCell id="70" value="includ" style="endArrow=open;endSize=12;dashed=1;html=1;exitX=1.015;exitY=0.377;exitDx=0;exitDy=0;entryX=0.345;entryY=0.975;entryDx=0;entryDy=0;exitPerimeter=0;entryPerimeter=0;" parent="1" source="68" target="30" edge="1">
                    <mxGeometry width="160" relative="1" as="geometry">
                        <mxPoint x="200" y="274" as="sourcePoint"/>
                        <mxPoint x="325" y="326" as="targetPoint"/>
                        <Array as="points">
                            <mxPoint x="280" y="740"/>
                        </Array>
                    </mxGeometry>
                </mxCell>
                <mxCell id="71" value="ajouter / modifier / supprimer un contenu&amp;nbsp;" style="ellipse;whiteSpace=wrap;html=1;" vertex="1" parent="1">
                    <mxGeometry x="37" y="676" width="134" height="52.5" as="geometry"/>
                </mxCell>
                <mxCell id="72" value="" style="endArrow=none;html=1;entryX=0;entryY=0.5;entryDx=0;entryDy=0;" edge="1" parent="1" source="6" target="71">
                    <mxGeometry width="50" height="50" relative="1" as="geometry">
                        <mxPoint x="-150" y="580" as="sourcePoint"/>
                        <mxPoint x="58" y="659" as="targetPoint"/>
                    </mxGeometry>
                </mxCell>
                <mxCell id="73" value="includ" style="endArrow=open;endSize=12;dashed=1;html=1;exitX=0.963;exitY=0.614;exitDx=0;exitDy=0;entryX=0.215;entryY=0.913;entryDx=0;entryDy=0;entryPerimeter=0;exitPerimeter=0;" edge="1" parent="1" source="71" target="30">
                    <mxGeometry width="160" relative="1" as="geometry">
                        <mxPoint x="168" y="659" as="sourcePoint"/>
                        <mxPoint x="353" y="388" as="targetPoint"/>
                        <Array as="points">
                            <mxPoint x="250" y="690"/>
                        </Array>
                    </mxGeometry>
                </mxCell>
            </root>
        </mxGraphModel>
    </diagram>
</mxfile>